<svg xmlns="http://www.w3.org/2000/svg" version="1.1" xmlns:xlink="http://www.w3.org/1999/xlink" width="512" height="512" x="0" y="0" viewBox="0 0 24 24" style="enable-background:new 0 0 512 512" xml:space="preserve" class=""><g><linearGradient id="a" x1="2" x2="22" y1="12" y2="12" gradientUnits="userSpaceOnUse"><stop stop-opacity="1" stop-color="#02beff" offset="0"></stop><stop stop-opacity="1" stop-color="#535bff" offset="1"></stop></linearGradient><switch><g><path fill="url(#a)" d="M18 10.8c-.6 0-1 .4-1 1V19c0 .6-.4 1-1 1H5c-.6 0-1-.4-1-1V8c0-.6.4-1 1-1h7.2c.6 0 1-.4 1-1s-.4-1-1-1H5C3.3 5 2 6.3 2 8v11c0 1.7 1.3 3 3 3h11c1.7 0 3-1.3 3-3v-7.2c0-.5-.4-1-1-1zm3.9-8.2c-.1-.2-.3-.4-.5-.5-.1-.1-.3-.1-.4-.1h-6c-.6 0-1 .4-1 1s.4 1 1 1h3.6L8.3 14.3c-.4.4-.4 1 0 1.4.4.4 1 .4 1.4 0L20 5.4V9c0 .6.4 1 1 1s1-.4 1-1V3c0-.1 0-.3-.1-.4z" opacity="1" data-original="url(#a)"></path></g></switch></g></svg>